<?xml version="1.0" standalone="no"?>
<!DOCTYPE svg PUBLIC "-//W3C//DTD SVG 20010904//EN"
 "http://www.w3.org/TR/2001/REC-SVG-20010904/DTD/svg10.dtd">
<svg version="1.0" xmlns="http://www.w3.org/2000/svg"
 width="182.000000pt" height="182.000000pt" viewBox="0 0 182.000000 182.000000"
 preserveAspectRatio="xMidYMid meet">
<metadata>
Created by potrace 1.11, written by Peter Selinger 2001-2013
</metadata>
<g transform="translate(0.000000,182.000000) scale(0.100000,-0.100000)"
fill="#000000" stroke="none">
<path d="M1065 1813 c-16 -1 -125 -4 -240 -5 -180 -3 -215 -6 -237 -20 -15
-10 -69 -89 -123 -180 -54 -90 -111 -183 -129 -208 -17 -25 -30 -47 -30 -50 1
-3 -5 -14 -12 -25 -7 -11 -63 -103 -124 -205 -125 -209 -125 -208 -69 -300 19
-30 37 -57 40 -60 3 -3 19 -27 34 -55 16 -27 71 -114 122 -193 51 -78 93 -145
93 -148 0 -3 41 -65 90 -138 50 -74 90 -138 90 -143 0 -4 14 -24 30 -43 l29
-35 363 1 c601 2 737 6 756 20 16 12 15 16 -7 56 -34 62 -93 152 -105 161 -6
4 -125 6 -265 5 l-253 -3 -43 90 c-81 173 -109 287 -108 450 0 124 19 208 58
269 21 32 14 53 -35 101 -33 33 -48 40 -82 41 -72 2 -102 71 -52 121 21 21 32
24 62 19 43 -6 72 -37 72 -75 0 -27 67 -111 88 -111 6 0 19 8 29 19 115 119
310 188 545 193 89 2 89 -11 2 129 -46 76 -51 88 -38 101 8 8 38 53 65 99 42
70 48 87 40 106 l-10 23 -308 -3 c-169 -1 -321 -3 -338 -4z"/>
<path d="M1595 1060 c-52 -20 -66 -92 -26 -134 30 -32 64 -37 101 -15 44 27
56 66 34 110 -19 38 -69 56 -109 39z"/>
<path d="M1294 716 c-38 -32 -38 -90 1 -123 31 -27 55 -29 95 -8 38 19 53 68
33 107 -26 53 -84 63 -129 24z"/>
</g>
</svg>
